<svg width="535" height="101" viewBox="0 0 535 101" fill="none" xmlns="http://www.w3.org/2000/svg">
<path d="M161.581 39.28C161.581 42.4267 160.701 45.3333 158.941 48C157.181 50.6667 154.275 52.6933 150.221 54.08L159.501 78H141.661L134.621 55.84H133.741L129.021 78H111.741L122.541 27.2H143.581C146.035 27.2 148.355 27.36 150.541 27.68C152.728 27.9467 154.621 28.5333 156.221 29.44C157.875 30.2933 159.181 31.52 160.141 33.12C161.101 34.6667 161.581 36.72 161.581 39.28ZM138.541 50.72C139.928 50.72 141.101 50.2667 142.061 49.36C143.075 48.4 143.875 47.2533 144.461 45.92C145.101 44.5867 145.555 43.1733 145.821 41.68C146.088 40.1333 146.221 38.8 146.221 37.68C146.221 36.2933 145.981 35.12 145.501 34.16C145.021 33.1467 143.981 32.64 142.381 32.64H138.781L134.781 50.72H138.541ZM186.16 42.72C192.507 42.72 197.12 43.84 200 46.08C203.04 48.4267 204.56 52.32 204.56 57.76C204.56 61.12 204 64.16 202.88 66.88C201.76 69.5467 200.187 71.76 198.16 73.52C194.107 76.9333 188.24 78.64 180.56 78.64C174 78.64 169.307 77.3867 166.48 74.88C163.44 72.2667 161.92 68.3467 161.92 63.12C161.92 59.6533 162.613 56.5067 164 53.68C165.44 50.8533 167.493 48.5067 170.16 46.64C174.053 44.0267 179.387 42.72 186.16 42.72ZM180.72 73.2C182.053 73.2 183.2 72.4533 184.16 70.96C185.173 69.4667 185.973 67.6533 186.56 65.52C187.147 63.3333 187.573 61.0933 187.84 58.8C188.16 56.4533 188.32 54.4267 188.32 52.72C188.32 51.2267 188.16 50.1067 187.84 49.36C187.573 48.56 186.96 48.16 186 48.16C184.56 48.16 183.307 48.9333 182.24 50.48C181.227 52.0267 180.4 53.8667 179.76 56C179.12 58.1333 178.64 60.32 178.32 62.56C178.053 64.8 177.92 66.6133 177.92 68C177.92 71.4667 178.853 73.2 180.72 73.2ZM209.171 43.6C211.145 43.1733 212.878 42.6933 214.371 42.16C215.865 41.6267 217.225 40.96 218.451 40.16C219.731 39.36 220.931 38.3733 222.051 37.2C223.225 36.0267 224.478 34.5867 225.811 32.88H234.051L231.731 43.6H237.971L236.931 48.96H230.611L227.331 64.56C227.065 65.7867 226.851 66.88 226.691 67.84C226.531 68.8 226.451 69.5467 226.451 70.08C226.451 71.1467 226.825 71.8133 227.571 72.08C228.371 72.3467 229.838 72.48 231.971 72.48L230.771 78C230.398 78.1067 229.811 78.1867 229.011 78.24C228.265 78.2933 227.411 78.3467 226.451 78.4C225.545 78.5067 224.585 78.56 223.571 78.56C222.611 78.6133 221.758 78.64 221.011 78.64C219.678 78.64 218.371 78.5333 217.091 78.32C215.811 78.16 214.665 77.8133 213.651 77.28C212.638 76.6933 211.811 75.8667 211.171 74.8C210.585 73.7333 210.291 72.2933 210.291 70.48C210.291 69.84 210.318 69.04 210.371 68.08C210.478 67.12 210.665 66.0533 210.931 64.88L214.291 48.96H208.051L209.171 43.6ZM253.556 61.92C253.343 63.0933 253.183 64.2133 253.076 65.28C253.023 66.3467 252.996 67.3067 252.996 68.16C252.996 68.64 253.023 69.1733 253.076 69.76C253.13 70.3467 253.236 70.9067 253.396 71.44C253.61 71.92 253.876 72.3467 254.196 72.72C254.57 73.04 255.076 73.2 255.716 73.2C256.196 73.2 256.73 73.04 257.316 72.72C257.956 72.4 258.57 71.9467 259.156 71.36C259.796 70.7733 260.383 70.0533 260.916 69.2C261.503 68.3467 261.956 67.3867 262.276 66.32H275.396L273.316 74.88C272.25 75.5733 271.023 76.16 269.636 76.64C268.25 77.12 266.783 77.52 265.236 77.84C263.69 78.1067 262.116 78.2933 260.516 78.4C258.916 78.56 257.396 78.64 255.956 78.64C253.29 78.64 250.81 78.4 248.516 77.92C246.223 77.44 244.223 76.6133 242.516 75.44C240.81 74.2667 239.45 72.72 238.436 70.8C237.476 68.8267 236.996 66.4 236.996 63.52C236.996 60.9067 237.396 58.3467 238.196 55.84C239.05 53.3333 240.436 51.12 242.356 49.2C244.33 47.2267 246.943 45.6533 250.196 44.48C253.503 43.3067 257.61 42.72 262.516 42.72C267.85 42.72 271.85 43.5467 274.516 45.2C277.236 46.8533 278.596 49.44 278.596 52.96C278.596 54.4 278.383 55.9733 277.956 57.68C277.53 59.3333 276.89 60.7467 276.036 61.92H253.556ZM264.196 52.4C264.196 50.7467 263.93 49.6267 263.396 49.04C262.863 48.4533 262.223 48.16 261.476 48.16C260.623 48.16 259.823 48.4533 259.076 49.04C258.383 49.5733 257.743 50.32 257.156 51.28C256.57 52.1867 256.036 53.2533 255.556 54.48C255.076 55.6533 254.676 56.9067 254.356 58.24H263.476C263.583 57.6 263.69 56.9333 263.796 56.24C263.903 55.6533 263.983 55.0133 264.036 54.32C264.143 53.6267 264.196 52.9867 264.196 52.4ZM290.666 27.2H324.346L323.066 33.28H306.666L303.546 47.92H317.226L315.946 54.08H302.266L297.146 78H279.866L290.666 27.2ZM335.197 61.92C334.984 63.0933 334.824 64.2133 334.717 65.28C334.664 66.3467 334.637 67.3067 334.637 68.16C334.637 68.64 334.664 69.1733 334.717 69.76C334.77 70.3467 334.877 70.9067 335.037 71.44C335.25 71.92 335.517 72.3467 335.837 72.72C336.21 73.04 336.717 73.2 337.357 73.2C337.837 73.2 338.37 73.04 338.957 72.72C339.597 72.4 340.21 71.9467 340.797 71.36C341.437 70.7733 342.024 70.0533 342.557 69.2C343.144 68.3467 343.597 67.3867 343.917 66.32H357.037L354.957 74.88C353.89 75.5733 352.664 76.16 351.277 76.64C349.89 77.12 348.424 77.52 346.877 77.84C345.33 78.1067 343.757 78.2933 342.157 78.4C340.557 78.56 339.037 78.64 337.597 78.64C334.93 78.64 332.45 78.4 330.157 77.92C327.864 77.44 325.864 76.6133 324.157 75.44C322.45 74.2667 321.09 72.72 320.077 70.8C319.117 68.8267 318.637 66.4 318.637 63.52C318.637 60.9067 319.037 58.3467 319.837 55.84C320.69 53.3333 322.077 51.12 323.997 49.2C325.97 47.2267 328.584 45.6533 331.837 44.48C335.144 43.3067 339.25 42.72 344.157 42.72C349.49 42.72 353.49 43.5467 356.157 45.2C358.877 46.8533 360.237 49.44 360.237 52.96C360.237 54.4 360.024 55.9733 359.597 57.68C359.17 59.3333 358.53 60.7467 357.677 61.92H335.197ZM345.837 52.4C345.837 50.7467 345.57 49.6267 345.037 49.04C344.504 48.4533 343.864 48.16 343.117 48.16C342.264 48.16 341.464 48.4533 340.717 49.04C340.024 49.5733 339.384 50.32 338.797 51.28C338.21 52.1867 337.677 53.2533 337.197 54.48C336.717 55.6533 336.317 56.9067 335.997 58.24H345.117C345.224 57.6 345.33 56.9333 345.437 56.24C345.544 55.6533 345.624 55.0133 345.677 54.32C345.784 53.6267 345.837 52.9867 345.837 52.4ZM378.947 61.92C378.734 63.0933 378.574 64.2133 378.467 65.28C378.414 66.3467 378.387 67.3067 378.387 68.16C378.387 68.64 378.414 69.1733 378.467 69.76C378.52 70.3467 378.627 70.9067 378.787 71.44C379 71.92 379.267 72.3467 379.587 72.72C379.96 73.04 380.467 73.2 381.107 73.2C381.587 73.2 382.12 73.04 382.707 72.72C383.347 72.4 383.96 71.9467 384.547 71.36C385.187 70.7733 385.774 70.0533 386.307 69.2C386.894 68.3467 387.347 67.3867 387.667 66.32H400.787L398.707 74.88C397.64 75.5733 396.414 76.16 395.027 76.64C393.64 77.12 392.174 77.52 390.627 77.84C389.08 78.1067 387.507 78.2933 385.907 78.4C384.307 78.56 382.787 78.64 381.347 78.64C378.68 78.64 376.2 78.4 373.907 77.92C371.614 77.44 369.614 76.6133 367.907 75.44C366.2 74.2667 364.84 72.72 363.827 70.8C362.867 68.8267 362.387 66.4 362.387 63.52C362.387 60.9067 362.787 58.3467 363.587 55.84C364.44 53.3333 365.827 51.12 367.747 49.2C369.72 47.2267 372.334 45.6533 375.587 44.48C378.894 43.3067 383 42.72 387.907 42.72C393.24 42.72 397.24 43.5467 399.907 45.2C402.627 46.8533 403.987 49.44 403.987 52.96C403.987 54.4 403.774 55.9733 403.347 57.68C402.92 59.3333 402.28 60.7467 401.427 61.92H378.947ZM389.587 52.4C389.587 50.7467 389.32 49.6267 388.787 49.04C388.254 48.4533 387.614 48.16 386.867 48.16C386.014 48.16 385.214 48.4533 384.467 49.04C383.774 49.5733 383.134 50.32 382.547 51.28C381.96 52.1867 381.427 53.2533 380.947 54.48C380.467 55.6533 380.067 56.9067 379.747 58.24H388.867C388.974 57.6 389.08 56.9333 389.187 56.24C389.294 55.6533 389.374 55.0133 389.427 54.32C389.534 53.6267 389.587 52.9867 389.587 52.4ZM438.537 24.24H454.937L443.497 78H430.537L429.097 72.88H428.537C428.217 73.36 427.71 73.9467 427.017 74.64C426.377 75.28 425.55 75.92 424.537 76.56C423.524 77.1467 422.324 77.6267 420.937 78C419.55 78.4267 417.95 78.64 416.137 78.64C414.27 78.64 412.67 78.3733 411.337 77.84C410.057 77.2533 408.99 76.48 408.137 75.52C407.337 74.56 406.75 73.4133 406.377 72.08C406.004 70.6933 405.817 69.2 405.817 67.6C405.817 66.9067 405.87 65.8133 405.977 64.32C406.084 62.7733 406.324 61.0933 406.697 59.28C407.124 57.4133 407.71 55.52 408.457 53.6C409.257 51.6267 410.297 49.84 411.577 48.24C412.91 46.64 414.537 45.3333 416.457 44.32C418.377 43.2533 420.697 42.72 423.417 42.72C424.27 42.72 425.177 42.8 426.137 42.96C427.097 43.12 428.004 43.4133 428.857 43.84C429.764 44.2667 430.564 44.88 431.257 45.68C431.95 46.48 432.457 47.52 432.777 48.8H433.337L438.537 24.24ZM428.777 50.56C427.497 50.56 426.43 51.28 425.577 52.72C424.724 54.1067 424.03 55.7333 423.497 57.6C422.964 59.4667 422.564 61.3333 422.297 63.2C422.084 65.0667 421.977 66.4533 421.977 67.36C421.977 68.4267 422.137 69.3333 422.457 70.08C422.777 70.7733 423.39 71.12 424.297 71.12C424.83 71.12 425.337 71.0133 425.817 70.8C426.35 70.5333 426.83 70.24 427.257 69.92C427.737 69.5467 428.137 69.1733 428.457 68.8C428.777 68.4267 429.044 68.1067 429.257 67.84L432.377 53.28C432.004 52.6933 431.497 52.1067 430.857 51.52C430.27 50.88 429.577 50.56 428.777 50.56ZM468.869 61.92C468.656 63.0933 468.496 64.2133 468.389 65.28C468.336 66.3467 468.309 67.3067 468.309 68.16C468.309 68.64 468.336 69.1733 468.389 69.76C468.442 70.3467 468.549 70.9067 468.709 71.44C468.922 71.92 469.189 72.3467 469.509 72.72C469.882 73.04 470.389 73.2 471.029 73.2C471.509 73.2 472.042 73.04 472.629 72.72C473.269 72.4 473.882 71.9467 474.469 71.36C475.109 70.7733 475.696 70.0533 476.229 69.2C476.816 68.3467 477.269 67.3867 477.589 66.32H490.709L488.629 74.88C487.562 75.5733 486.336 76.16 484.949 76.64C483.562 77.12 482.096 77.52 480.549 77.84C479.002 78.1067 477.429 78.2933 475.829 78.4C474.229 78.56 472.709 78.64 471.269 78.64C468.602 78.64 466.122 78.4 463.829 77.92C461.535 77.44 459.536 76.6133 457.829 75.44C456.122 74.2667 454.762 72.72 453.749 70.8C452.789 68.8267 452.309 66.4 452.309 63.52C452.309 60.9067 452.709 58.3467 453.509 55.84C454.362 53.3333 455.749 51.12 457.669 49.2C459.642 47.2267 462.256 45.6533 465.509 44.48C468.816 43.3067 472.922 42.72 477.829 42.72C483.162 42.72 487.162 43.5467 489.829 45.2C492.549 46.8533 493.909 49.44 493.909 52.96C493.909 54.4 493.696 55.9733 493.269 57.68C492.842 59.3333 492.202 60.7467 491.349 61.92H468.869ZM479.509 52.4C479.509 50.7467 479.242 49.6267 478.709 49.04C478.176 48.4533 477.536 48.16 476.789 48.16C475.936 48.16 475.136 48.4533 474.389 49.04C473.696 49.5733 473.056 50.32 472.469 51.28C471.882 52.1867 471.349 53.2533 470.869 54.48C470.389 55.6533 469.989 56.9067 469.669 58.24H478.789C478.896 57.6 479.002 56.9333 479.109 56.24C479.216 55.6533 479.296 55.0133 479.349 54.32C479.456 53.6267 479.509 52.9867 479.509 52.4ZM501.659 43.6H514.699L515.899 49.6H516.459C517.685 47.68 519.259 46.0533 521.179 44.72C523.099 43.3867 525.632 42.72 528.779 42.72C528.992 42.72 529.312 42.7467 529.739 42.8C530.219 42.8 530.726 42.88 531.259 43.04C531.846 43.1467 532.432 43.3333 533.019 43.6C533.659 43.8133 534.272 44.1333 534.859 44.56L531.339 61.04H522.619C522.512 57.7333 522.219 55.44 521.739 54.16C521.259 52.8267 520.486 52.16 519.419 52.16C518.886 52.16 518.299 52.2933 517.659 52.56C517.072 52.7733 516.459 53.28 515.819 54.08L510.699 78H494.379L501.659 43.6Z" fill="url(#paint0_linear_606_284)"/>
<path d="M93.5769 59.7193V64.9623C93.5769 66.7524 93.1971 68.525 92.4592 70.1788C91.7213 71.8327 90.6397 73.3354 89.2762 74.6012C87.9127 75.867 86.294 76.8711 84.5125 77.5562C82.731 78.2412 80.8216 78.5938 78.8933 78.5938H73.2458V89.0797H68.7278V74.3995L68.7707 72.3023C69.0553 68.8786 70.7212 65.6807 73.4355 63.3479C76.1498 61.0151 79.7125 59.7192 83.4114 59.7193H93.5769ZM57.4328 51.3307C60.7521 51.3309 63.9872 52.3003 66.6804 54.1016C69.3735 55.9028 71.3882 58.4448 72.4394 61.3677C70.7107 62.7276 69.2945 64.3965 68.275 66.2751C67.2555 68.1536 66.6535 70.2034 66.5049 72.3023H64.2098C60.0159 72.3023 55.9938 70.7557 53.0283 68.0026C50.0627 65.2496 48.3967 61.5156 48.3967 57.6222V51.3307H57.4328Z" fill="url(#paint1_linear_606_284)"/>
<path d="M36.3979 39.5384C42.1927 34.6577 49.6898 32.2794 57.2386 32.9255C58.8102 33.0604 59.9749 34.4438 59.8404 36.0156C59.7055 37.5873 58.3221 38.752 56.7503 38.6174C50.7114 38.1006 44.7145 40.0039 40.0787 43.9084C35.4429 47.8132 32.548 53.4007 32.0311 59.4399C31.8963 61.0116 30.5127 62.1762 28.941 62.0417C27.369 61.9072 26.2033 60.5239 26.3379 58.9519C26.9841 51.403 30.6031 44.4194 36.3979 39.5384ZM23.5153 24.2442C33.3664 15.9466 46.1105 11.9027 58.9436 13.0012C60.5154 13.1358 61.6813 14.5191 61.5467 16.091C61.412 17.6626 60.0283 18.8271 58.4566 18.6928C47.1333 17.7236 35.8883 21.2928 27.1961 28.6142C18.5039 35.9356 13.0758 46.4102 12.1065 57.7336C11.9719 59.3055 10.5885 60.4711 9.01662 60.3367C7.4447 60.2021 6.27907 58.8188 6.41349 57.2469C7.51198 44.4136 13.664 32.5419 23.5153 24.2442Z" fill="url(#paint2_linear_606_284)" stroke="url(#paint3_linear_606_284)" stroke-width="2"/>
<defs>
<linearGradient id="paint0_linear_606_284" x1="340.704" y1="100.829" x2="305.554" y2="-127.6" gradientUnits="userSpaceOnUse">
<stop stop-color="#07C160"/>
<stop offset="0.328125" stop-color="#3ECF4A" stop-opacity="0.96"/>
<stop offset="0.666667" stop-color="#99E626" stop-opacity="0.400734"/>
<stop offset="1" stop-color="#FAFF00" stop-opacity="0"/>
</linearGradient>
<linearGradient id="paint1_linear_606_284" x1="72.852" y1="89.0158" x2="36.3696" y2="21.2628" gradientUnits="userSpaceOnUse">
<stop stop-color="#07C160"/>
<stop offset="0.328125" stop-color="#3ECF4A" stop-opacity="0.96"/>
<stop offset="0.666667" stop-color="#99E626" stop-opacity="0.400734"/>
<stop offset="1" stop-color="#FAFF00" stop-opacity="0"/>
</linearGradient>
<linearGradient id="paint2_linear_606_284" x1="40.72" y1="59.9646" x2="-13.3592" y2="-16.7841" gradientUnits="userSpaceOnUse">
<stop stop-color="#07C160"/>
<stop offset="0.328125" stop-color="#3ECF4A" stop-opacity="0.96"/>
<stop offset="0.666667" stop-color="#99E626" stop-opacity="0.400734"/>
<stop offset="1" stop-color="#FAFF00" stop-opacity="0"/>
</linearGradient>
<linearGradient id="paint3_linear_606_284" x1="40.72" y1="59.9646" x2="-13.3592" y2="-16.7841" gradientUnits="userSpaceOnUse">
<stop stop-color="#07C160"/>
<stop offset="0.328125" stop-color="#3ECF4A" stop-opacity="0.96"/>
<stop offset="0.666667" stop-color="#99E626" stop-opacity="0.400734"/>
<stop offset="1" stop-color="#FAFF00" stop-opacity="0"/>
</linearGradient>
</defs>
</svg>
